<svg width="463" height="160" xmlns="http://www.w3.org/2000/svg"><g id="Design" stroke="none" stroke-width="1" fill="none" fill-rule="evenodd"><g id="Hp-1" transform="translate(-779 -222)" fill="#FFF" fill-rule="nonzero"><g id="H1" transform="translate(340 222)"><path d="M680.035 7.487c3.71 4.209 5.059 8.361 5.514 12.735.191 1.844.169 3.504.023 5.2-.167 1.931-.473 3.796-.96 6.022l-.238 1.055-.264 1.115-.292 1.186-1.608 6.22-.291 1.205-.23 1.088-.419 1.936-.37 1.656-.394 1.714-.529 2.226-.584 2.385-.943 3.739-1.49 5.775-1.448 5.572-.543 2.106 1.686-2.313 2.546-3.469 2.36-3.18 1.34-1.785 1.292-1.701 1.248-1.626.812-1.047.798-1.018.785-.994.775-.97 1.148-1.418 1.135-1.38 1.129-1.348 1.13-1.325.756-.875.762-.871.769-.869 1.17-1.304.795-.874.388-.424c10.842-11.806 22.055-20.86 34.867-27.4 4.054-2.069 8.067-3.369 12.707-3.526 8.219-.28 16.198 3.482 20.93 10.86 3.203 4.992 4.116 10.007 3.909 15.213-.112 2.815-.58 5.586-1.327 8.555l-.215.839-.22.825-.303 1.09-.158.545-.163.546a79.802 79.802 0 0 1-.616 1.95l-.287.855-.402 1.15-.552 1.52-.488 1.294-.675 1.737-.754 1.891-1.022 2.507-1.165 2.802-2.55 6.045-2.895 6.811-.932 2.221-1.133 2.74-.46 1.124 1.753-1.665 1.966-1.853 1.73-1.614.937-.889.529-.512.784-.774.774-.781 1.046-1.082 1.074-1.143.833-.906 1.16-1.285 1.226-1.388 1.309-1.506 1.773-2.072 2.79-3.306 4.502-5.381 1.726-2.044 1.65-1.936 1.583-1.835 1.52-1.74.982-1.111.96-1.074.941-1.038.922-1.004.907-.973.892-.944.88-.915.872-.89.863-.866c.287-.285.573-.566.858-.844l.855-.824.853-.806.426-.397.855-.782.86-.77.43-.38.87-.753.877-.744.89-.737.901-.734.918-.73.934-.73.955-.73c.16-.122.322-.244.485-.366 2.823-2.122 6.08-3.724 10.147-4.415a22.383 22.383 0 0 1 17.409 4.307c3.62 2.779 5.867 6.11 7.3 9.682a25.207 25.207 0 0 1 1.535 5.71c.279 1.84.389 3.543.375 5.38l-.005.296.213-.243c6.07-6.908 12.223-13.164 18.537-18.756l1.116-.98a32.734 32.734 0 0 1 2.723-2.153c2.424-1.702 4.71-2.93 8.357-3.736 12.017-2.66 24.81 5.124 26.455 18.693.354 2.923.121 5.346-.412 7.67a23.578 23.578 0 0 1-.99 3.235l-.123.315-.253.619-.266.61-.138.303-.29.607-.151.307-.321.621c-.055.105-.112.21-.17.317l-.358.65-.19.334-.404.694-.67 1.112-.758 1.22-1.35 2.118-3.084 4.723a25.899 25.899 0 0 1 2.9 1.828c9.389 6.82 12.953 18.753 7.679 26.76l.443.502-2.084 1.82-2.83 2.417-3.295 2.791-1.94 1.658-1.647 1.43-1.15 1.016-1.031.933-.947.879-.891.853-.868.855-.22.222-.241.336-.254.37-.197.3-.399.63-.46.76-.564.963-1.686 2.932-.954 1.631-.598 1-.575.937-.558.884-.275.424-.544.818a46.975 46.975 0 0 1-1.088 1.539l-.556.737a45.166 45.166 0 0 1-1.792 2.174l-.658.738c-5.75 6.334-13.089 10.494-22.094 11.146-5.903.427-11.628-.657-16.503-3.325l-.276-.153-2.184 3.369-.903 1.37-.991 1.476-.864 1.249-.616.862-.429.579-.405.53-.388.49-.252.309-.438.517-.378.428-.19.21-.39.42-.611.638-.902.918c-3.802 3.842-7.631 6.469-14.08 7.391-6.399.915-13.008-.934-18.055-5.404-3.631-3.217-5.669-6.92-6.816-10.833-1.365-4.66-1.394-8.76-.64-14.698l.173-1.301.196-1.364.19-1.256.183-1.14.306-1.814.227-1.282.375-2.037.418-2.18.462-2.332.194-.962-2.039 1.937-6.1 5.84-2.275 2.158-2.193 2.062-1.42 1.322-1.389 1.282-1.358 1.242-1.33 1.205-1.305 1.167-1.28 1.132-1.258 1.097-1.236 1.063-1.218 1.031-1.2 1-1.186.97-1.172.941c-.388.31-.775.614-1.16.914l-1.15.887-1.142.861c-.38.283-.758.562-1.135.838l-1.131.814-1.129.792c-.94.652-1.878 1.282-2.82 1.893l-1.134.725c-.568.358-1.137.71-1.71 1.056l-1.15.685-1.16.672c-.389.221-.779.441-1.172.659l-1.185.647-.598.32-1.209.632-.61.313-1.237.62c-.416.205-.835.41-1.258.613-7.977 3.837-17.88 3.632-25.737-3.571-5.23-4.795-7.017-9.971-7.571-15.683-.273-2.809-.199-5.167.152-8.224l.135-1.11.158-1.179.29-2.011.406-2.77.076-.604.022-.207.092-2.577.071-1.784.076-1.713.08-1.649.133-2.362.097-1.507.105-1.46.048-.642-3.137 4.296-2.342 3.17-1.744 2.33-1.246 1.646-1.203 1.572-1.553 1.998-.76.966-1.13 1.415-.748.927-.749.918-.654.794c-.984 1.19-1.98 2.37-3.015 3.577-8.711 10.152-17.416 18.391-27.043 25.139-3.307 2.318-6.891 3.985-11.301 4.628-7.151 1.043-14.467-1.21-19.774-6.51-3.689-3.682-5.591-7.8-6.558-12.174-.527-2.385-.726-4.7-.726-7.129l.002-.399.012-.796c.006-.265.014-.531.024-.798l.037-.804c.015-.269.031-.54.05-.813l.063-.826.076-.844.09-.864.104-.89.118-.917.132-.95.147-.987.162-1.026.177-1.07.295-1.697.448-2.452.379-1.998 1.281-6.613.557-2.985.122-.696-1.027 1.14-1.496 1.642-1.525 1.655-1.549 1.662-1.569 1.667c-.526.556-1.055 1.112-1.586 1.667l-1.598 1.663-1.606 1.654-1.612 1.642-1.612 1.625c-.537.538-1.073 1.073-1.609 1.604l-1.601 1.579c-.533.521-1.063 1.038-1.591 1.55l-1.576 1.515-1.556 1.479-1.534 1.437c-.507.471-1.01.935-1.507 1.39l-1.476 1.34a176.115 176.115 0 0 1-4.869 4.236l-.67.559-.212.211-.458.486-1.54 1.731-1.485 1.697-.838.944-.402.446-.774.846c-.379.408-.746.796-1.106 1.166l-.712.72a39.734 39.734 0 0 1-5.198 4.356c-7.368 5.23-16.226 7.46-25.673 4.645-6.743-2.009-12.424-6.67-15.438-13.378-2.293-5.105-2.594-10.07-1.783-14.941.572-3.438 1.459-6.092 2.982-9.504l.532-1.167.581-1.236 1.762-3.665.351-.787.018-.045.351-1.215c2.274-7.788 4.712-14.91 7.478-21.652l.52-1.253-5.207 4.213-20.693 16.875-3.21 2.58-2.287 1.82-2.193 1.73-2.106 1.646-2.028 1.566-1.312 1.003-1.283.972-1.257.942-1.233.915-1.21.889-1.192.864-1.175.842c-7.439 5.299-13.805 9.182-19.73 11.802-9.602 4.247-18.644 5.642-27.966 1.889-10.84-4.365-17.3-14.033-17.853-25.271-.336-6.815 1.37-13.404 4.536-20.6.165-.376.335-.753.508-1.132l.532-1.142.557-1.155c.094-.193.19-.387.287-.581l.595-1.174c.405-.787.827-1.584 1.266-2.391l.674-1.22.346-.617.714-1.247.742-1.267c.252-.425.509-.854.77-1.287l.799-1.308.828-1.332.857-1.355.888-1.38.455-.7.933-1.42.965-1.447.494-.734 1.012-1.491 1.045-1.522 1.629-2.342 1.127-1.603 1.161-1.637 1.196-1.673 2.025-2.808 13.384-18.273.925-1.276 1.206-1.683 1.478-2.09 1.334-1.92.909-1.335.563-.84.53-.802.735-1.134.45-.711.616-1.002.19-.317.183-.31.173-.017c5.891-7.773 18.233-8.515 27.739-1.61 9.605 6.977 13.114 19.306 7.298 27.309-.107.147-.216.291-.328.433l-.74 1.14-.85 1.284-.443.66-.92 1.356-.971 1.408-1.143 1.635 3.1-2.514 2.878-2.32 1.85-1.48 2.686-2.138 1.742-1.376 1.71-1.342 2.52-1.961 1.927-1.486 1.903-1.455 1.88-1.423 1.855-1.392 1.833-1.36.908-.668 1.799-1.313 1.778-1.282c.294-.212.588-.421.88-.63l1.747-1.235 1.727-1.205.855-.59 1.697-1.159 1.678-1.127 1.66-1.097a232.63 232.63 0 0 1 3.266-2.102l1.607-1.006c.266-.165.532-.329.797-.491l1.583-.96.786-.469 1.56-.915c9.573-5.548 18.302-9.384 26.738-11.599 4.73-1.241 9.226-1.656 14.026-.714 8.095 1.588 14.98 6.988 18.073 15.06a25.14 25.14 0 0 1 1.522 6.138l.042.407.27-.339c6.093-7.716 11.084-13.278 17.148-19.123l1.213-1.16c2.372-2.248 4.967-4.06 8.691-5.333 8.08-2.765 17.512-.856 23.799 6.274Z" id="Brush-bg"/></g></g></g></svg>