<svg width="120" height="120" xmlns="http://www.w3.org/2000/svg"><g id="Symbols" stroke="none" stroke-width="1" fill="none" fill-rule="evenodd"><g id="Icons/Social/Discord" fill="#5865F2" fill-rule="nonzero"><path d="M77.306 74.062c-5.123 0-9.347-4.702-9.347-10.48 0-5.778 4.138-10.48 9.347-10.48s9.427 4.748 9.347 10.48c-.08 5.733-4.099 10.48-9.347 10.48Zm-34.553 0c-5.124 0-9.348-4.702-9.348-10.48 0-5.778 4.139-10.48 9.348-10.48 5.208 0 9.426 4.748 9.347 10.48-.08 5.733-4.139 10.48-9.342 10.48h-.005ZM96.029 26.57a85.746 85.746 0 0 0-21.165-6.564.319.319 0 0 0-.342.16 59.726 59.726 0 0 0-2.635 5.413 79.16 79.16 0 0 0-23.772 0 54.779 54.779 0 0 0-2.676-5.413.336.336 0 0 0-.341-.16 85.507 85.507 0 0 0-21.165 6.564.302.302 0 0 0-.136.12C10.317 46.83 6.622 66.473 8.427 85.89c.01.097.06.185.136.245a86.23 86.23 0 0 0 25.964 13.127c.134.04.28-.008.364-.12a61.633 61.633 0 0 0 5.311-8.641.33.33 0 0 0-.182-.455 56.783 56.783 0 0 1-8.112-3.866.336.336 0 0 1-.034-.569c.57-.41 1.093-.831 1.611-1.264a.319.319 0 0 1 .336-.045c17.015 7.77 35.442 7.77 52.257 0a.319.319 0 0 1 .342.04c.518.427 1.064.86 1.616 1.263a.336.336 0 0 1-.028.57 53.293 53.293 0 0 1-8.083 3.842.33.33 0 0 0-.177.461 69.204 69.204 0 0 0 5.3 8.641.33.33 0 0 0 .364.126 85.957 85.957 0 0 0 26.003-13.127.336.336 0 0 0 .137-.24c2.169-22.428-3.632-41.913-15.37-59.201a.268.268 0 0 0-.148-.108h-.005Z" id="Shape"/></g></g></svg>