<svg width="64" height="64" xmlns="http://www.w3.org/2000/svg"><defs><linearGradient x1="93.836%" y1="72.141%" x2="0%" y2="17.064%" id="linearGradient-1"><stop stop-color="#259CFF" offset="0%"/><stop stop-color="#8238FF" offset="28.055%"/><stop stop-color="#F400EA" offset="53.337%"/><stop stop-color="#FF2A19" offset="78.895%"/><stop stop-color="#FF6D04" offset="100%"/></linearGradient></defs><g id="Symbols" stroke="none" stroke-width="1" fill="none" fill-rule="evenodd"><g id="Icons/Features/Gift"><path d="M31.616 0c15.265 0 27.617 12.353 27.617 27.616 0 7.669-3.181 14.957-8.761 20.173l1.115 5.135c3.037.695 5.31 3.418 5.311 6.663v2.538c0 1.035-.84 1.875-1.875 1.875H8.21a1.875 1.875 0 0 1-1.875-1.875v-2.538c0-3.245 2.273-5.968 5.31-6.663l1.116-5.135A27.595 27.595 0 0 1 4 27.616C4 12.352 16.353 0 31.616 0Zm18.445 56.5h-36.89a3.09 3.09 0 0 0-3.086 3.087v.663h43.063v-.663A3.09 3.09 0 0 0 50.06 56.5ZM46.897 49H16.335l-.814 3.75h32.19L46.898 49ZM31.617 3.75C18.456 3.75 7.75 14.456 7.75 27.616a23.85 23.85 0 0 0 7.785 17.634h32.163a23.85 23.85 0 0 0 7.785-17.634c0-13.16-10.707-23.866-23.867-23.866Zm-12.63 28.712c1.035 0 1.874.84 1.874 1.875v1.097h1.097a1.875 1.875 0 0 1 0 3.75h-1.097v1.097a1.875 1.875 0 0 1-3.75 0v-1.097h-1.096a1.875 1.875 0 0 1 0-3.75h1.096v-1.096c0-1.036.84-1.876 1.875-1.876Zm22.18 4.07a1.875 1.875 0 1 1 0 3.75 1.875 1.875 0 0 1 0-3.75Zm8.646-6.407a1.875 1.875 0 1 1 0 3.75 1.875 1.875 0 0 1 0-3.75ZM15.07 18.078a1.875 1.875 0 1 1 0 3.75 1.875 1.875 0 0 1 0-3.75Zm27.194-7.818c1.036 0 1.875.84 1.875 1.875v1.097h1.097a1.875 1.875 0 0 1 0 3.75H44.14v1.096a1.875 1.875 0 0 1-3.75 0v-1.096h-1.097a1.875 1.875 0 0 1 0-3.75h1.096v-1.097c0-1.036.84-1.875 1.875-1.875Zm-19.73 0a1.875 1.875 0 1 1 0 3.75 1.875 1.875 0 0 1 0-3.75Z" id="Shape" fill="#0B1621"/><path d="m18.625 28.026 8.382 2.833 2.833 8.382c.573 1.695 2.98 1.695 3.553 0l2.832-8.382 8.383-2.833c1.694-.573 1.694-2.98 0-3.552l-8.383-2.833-2.832-8.382c-.573-1.695-2.98-1.695-3.553 0l-2.833 8.382-8.382 2.833c-1.695.573-1.695 2.98 0 3.552Zm10.462-3.13a1.875 1.875 0 0 0 1.176-1.176l1.353-4.005 1.354 4.006c.187.553.622.988 1.176 1.175l4.005 1.354-4.005 1.354a1.875 1.875 0 0 0-1.176 1.176l-1.354 4.005-1.353-4.005a1.875 1.875 0 0 0-1.176-1.177L25.08 26.25l4.006-1.354Z" id="Shape" fill="url('#linearGradient-1')" fill-rule="nonzero"/></g></g></svg>