<?xml version="1.0" encoding="UTF-8"?>
<svg width="64px" height="64px" viewBox="0 0 64 64" version="1.1" xmlns="http://www.w3.org/2000/svg" xmlns:xlink="http://www.w3.org/1999/xlink">
    <title>Icons/Features/Blockchain</title>
    <defs>
        <linearGradient x1="84.4430155%" y1="72.1407064%" x2="10.7134419%" y2="17.0640055%" id="linearGradient-1">
            <stop stop-color="#259CFF" offset="0%"></stop>
            <stop stop-color="#8238FF" offset="28.054715%"></stop>
            <stop stop-color="#F400EA" offset="53.3368142%"></stop>
            <stop stop-color="#FF2A19" offset="78.8953341%"></stop>
            <stop stop-color="#FF6D04" offset="100%"></stop>
        </linearGradient>
    </defs>
    <g id="Symbols" stroke="none" stroke-width="1" fill="none" fill-rule="evenodd">
        <g id="Icons/Features/Blockchain">
            <path d="M63.062625,19.1516563 C63.64275,18.8166563 64,18.1977813 64,17.5279063 L64,7.09265625 C64,6.42278125 63.642625,5.80378125 63.0625,5.46890625 L54.025,0.25115625 C53.44475,-0.08371875 52.73025,-0.08371875 52.15,0.25115625 L43.1125,5.46890625 C42.532375,5.80378125 42.175,6.42278125 42.175,7.09265625 L42.175,9.03753125 L21.825,9.03753125 L21.825,7.09265625 C21.825,6.42278125 21.467625,5.80378125 20.8875,5.46890625 L11.85,0.25115625 C11.26975,-0.08371875 10.55525,-0.08371875 9.975,0.25115625 L0.9375,5.46890625 C0.357375,5.80378125 0,6.42278125 0,7.09265625 L0,17.5279063 C0,18.1976563 0.35725,18.8166563 0.937375,19.1516563 L9.0375,23.8290313 L9.0375,40.1707812 L0.9375,44.8472812 C0.357375,45.1821562 0,45.8011562 0,46.4710312 L0,56.9062812 C0,57.5760312 0.35725,58.1950312 0.937375,58.5300313 L9.974875,63.7487813 C10.555,64.0837813 11.27,64.0837813 11.850125,63.7487813 L20.887625,58.5300313 C21.46775,58.1950312 21.825,57.5761563 21.825,56.9062812 L21.825,54.9625312 L42.175,54.9625312 L42.175,56.9062812 C42.175,57.5760312 42.53225,58.1950312 43.112375,58.5300313 L52.149875,63.7487813 C52.73,64.0837813 53.445,64.0837813 54.025125,63.7487813 L63.062625,58.5300313 C63.64275,58.1950312 64,57.5761563 64,56.9062812 L64,46.4710313 C64,45.8011563 63.642625,45.1821563 63.0625,44.8472813 L54.9625,40.1707813 L54.9625,23.8290313 L63.062625,19.1516563 Z M60.25,16.4455313 L54.9625,19.4987813 L54.9625,13.3929062 L60.25,10.3401562 L60.25,16.4455313 Z M53.0875,4.04003125 L58.375,7.09265625 L53.0875,10.1452813 L47.800125,7.09265625 L53.0875,4.04003125 Z M45.925,10.3402813 L51.2125,13.3929063 L51.2125,19.4987813 L45.925,16.4455313 L45.925,10.3402813 Z M18.075,16.4455313 L12.7875,19.4987813 L12.7875,13.3929062 L18.075,10.3402813 L18.075,16.4455313 Z M10.9125,4.04003125 L16.2,7.09265625 L10.9125,10.1452813 L5.625125,7.09265625 L10.9125,4.04003125 Z M3.75,10.3402813 L9.0375,13.3929063 L9.0375,19.4987813 L3.75,16.4455313 L3.75,10.3402813 Z M9.0375,58.8771563 L3.75,55.8239063 L3.75,49.7186563 L9.0375,52.7712813 L9.0375,58.8771563 Z M10.9125,49.5236562 L5.625125,46.4710312 L10.9125,43.4184063 L16.199875,46.4710312 L10.9125,49.5236562 Z M18.075,55.8239063 L12.7875,58.8771563 L12.7875,52.7712813 L18.075,49.7186563 L18.075,55.8239063 Z M21.825,51.2125312 L21.825,46.4710312 C21.825,45.8011562 21.467625,45.1821562 20.8875,44.8472812 L12.7875,40.1707812 L12.7875,23.8291562 L20.887625,19.1517812 C21.46775,18.8167812 21.825,18.1979062 21.825,17.5280312 L21.825,12.7875312 L42.175,12.7875312 L42.175,17.5280312 C42.175,18.1977812 42.53225,18.8167812 43.112375,19.1517812 L51.2125,23.8291562 L51.2125,40.1709062 L43.1125,44.8474062 C42.532375,45.1822812 42.175,45.8012812 42.175,46.4711562 L42.175,51.2125312 L21.825,51.2125312 Z M51.2125,58.8771563 L45.925,55.8239063 L45.925,49.7186563 L51.2125,52.7712813 L51.2125,58.8771563 Z M60.25,55.8239063 L54.9625,58.8771563 L54.9625,52.7712813 L60.25,49.7186563 L60.25,55.8239063 Z M53.0875,49.5236562 L47.800125,46.4710312 L53.0875,43.4184063 L58.375,46.4710312 L53.0875,49.5236562 Z" id="Shape" fill="#0B1621"></path>
            <path d="M42.9125,37.2171563 L42.9125,26.7819063 C42.9125,26.1120313 42.555125,25.4930313 41.975,25.1581563 L32.9375,19.9404063 C32.35725,19.6055313 31.64275,19.6055313 31.0625,19.9404063 L22.025,25.1581563 C21.444875,25.4930313 21.0875,26.1120313 21.0875,26.7819063 L21.0875,37.2171563 C21.0875,37.8869063 21.44475,38.5059063 22.024875,38.8409063 L31.062375,44.0596563 C31.6425,44.3946563 32.3575,44.3946563 32.937625,44.0596563 L41.975125,38.8409063 C42.55525,38.5059063 42.9125,37.8869063 42.9125,37.2171563 Z M30.125,39.1879063 L24.8375,36.1346563 L24.8375,30.0294063 L30.125,33.0820313 L30.125,39.1879063 Z M32,29.8344063 L26.712625,26.7817813 L32,23.7291563 L37.287375,26.7817813 L32,29.8344063 Z M39.1625,36.1346563 L33.875,39.1879063 L33.875,33.0820313 L39.1625,30.0294063 L39.1625,36.1346563 Z" id="Shape" fill="url(#linearGradient-1)" fill-rule="nonzero"></path>
        </g>
    </g>
</svg>