<?xml version="1.0" encoding="UTF-8"?>
<svg width="64px" height="64px" viewBox="0 0 64 64" version="1.1" xmlns="http://www.w3.org/2000/svg" xmlns:xlink="http://www.w3.org/1999/xlink">
    <title>Icons/Features/Eternal</title>
    <defs>
        <linearGradient x1="93.8356236%" y1="66.2666414%" x2="0%" y2="25.8021265%" id="linearGradient-1">
            <stop stop-color="#259CFF" offset="0%"></stop>
            <stop stop-color="#8238FF" offset="28.054715%"></stop>
            <stop stop-color="#F400EA" offset="53.3368142%"></stop>
            <stop stop-color="#FF2A19" offset="78.8953341%"></stop>
            <stop stop-color="#FF6D04" offset="100%"></stop>
        </linearGradient>
    </defs>
    <g id="Symbols" stroke="none" stroke-width="1" fill="none" fill-rule="evenodd">
        <g id="Icons/Features/Eternal">
            <path d="M64,48 C64,50.0615 63.701375,52.008125 63.112375,53.786125 C62.67825,55.09675 61.26375,55.807625 59.953125,55.373125 C58.6425,54.939 57.932,53.5245 58.366125,52.213875 C58.786625,50.944 59,49.52625 59,48 C59,41.215 54.785,37 48,37 C41.72375,37 38.373375,42.030375 34.764375,48.11625 C36.066625,50.95775 40.423,59 48,59 C49.3615,59 50.64475,58.826125 51.814125,58.483375 C53.139,58.09475 54.528,58.854 54.9165,60.179 C55.305,61.503875 54.545875,62.892875 53.220875,63.281375 C51.5945,63.758125 49.837875,64 48,64 C42.675375,64 37.791375,61.331125 33.876,56.282 C33.038,55.201375 32.331375,54.1225 31.748875,53.1345 C28.1595,58.792125 23.68775,64 16,64 C11.325625,64 7.323875,62.469 4.427375,59.572625 C1.531,56.676125 0,52.674375 0,48 C0,43.325625 1.531,39.323875 4.427375,36.427375 C7.323875,33.531 11.325625,32 16,32 C20.194375,32 24.05675,33.663875 27.48,36.94525 C28.47675,37.90075 28.51025,39.48325 27.55475,40.48 C26.59925,41.476875 25.016625,41.510125 24.02,40.55475 C21.524625,38.16275 18.90125,37 16,37 C9.215,37 5,41.215 5,48 C5,54.785 9.215,59 16,59 C22.547875,59 25.88125,53.34175 29.740875,46.79 C33.825,39.8575 38.453875,32 48,32 C52.6745,32 56.67625,33.531 59.572625,36.427375 C62.469,39.323875 64,43.3255 64,48 Z" id="Path" fill="#0B1621"></path>
            <path d="M39.5,0 C45.294375,0 49.5,4.405875 49.5,10.476125 C49.5,16.832875 44.142125,20.836 39.415,24.367875 C37.23875,25.993875 35.18325,27.529625 33.948875,29.065875 C33.47425,29.656375 32.757625,30 32,30 C31.242375,30 30.52575,29.656375 30.051125,29.065875 C28.81675,27.529625 26.76125,25.993875 24.585,24.367875 C19.857875,20.836 14.5,16.832875 14.5,10.476125 C14.5,4.405875 18.705625,0 24.5,0 C27.589125,0 30.195125,1.106625 32,3.150375 C33.804875,1.106625 36.410875,0 39.5,0 Z M39.5,5 C37.512875,5 36.12975,5.690875 35.27175,7.11225 C34.616625,8.1975 34.49325,9.324 34.4925,9.33475 C34.391,10.637375 33.3055,11.6645 32.001625,11.664625 L31.97775,11.6645 C30.66725,11.651875 29.59125,10.6535 29.5085,9.347125 C29.494125,9.2225 29.345125,8.067125 28.6535,6.992 C27.791,5.6515 26.432375,5 24.5,5 C21.509375,5 19.5,7.200625 19.5,10.476125 C19.5,13.9690058 22.8780349,16.8177855 26.4693975,19.5312009 L27.30052,20.1552023 C27.3929676,20.2243203 27.4853953,20.293375 27.57775,20.362375 C29.15725,21.5425 30.679875,22.680125 32,23.887375 C33.32025,22.680125 34.842875,21.5425 36.42225,20.362375 L36.69948,20.155194 L37.5306025,19.5311722 C41.1219651,16.8176827 44.5,13.9690058 44.5,10.476125 C44.5,7.200625 42.490625,5 39.5,5 Z" id="Combined-Shape" fill="url(#linearGradient-1)" fill-rule="nonzero"></path>
        </g>
    </g>
</svg>