<?xml version="1.0" encoding="UTF-8"?>
<svg width="24px" height="24px" viewBox="0 0 24 24" version="1.1" xmlns="http://www.w3.org/2000/svg" xmlns:xlink="http://www.w3.org/1999/xlink">
    <title>Icons/Basic/arrow-small-left</title>
    <g id="Symbols" stroke="none" stroke-width="1" fill="none" fill-rule="evenodd">
        <g id="Icons/Basic/arrow-small-left" fill="#0B1621">
            <path d="M18,11.0043885 L8,11.0043885 L11.29,7.71202284 C11.4793127,7.52412122 11.5857983,7.26834157 11.5857983,7.00151231 C11.5857983,6.73468305 11.4793127,6.4789034 11.29,6.29100179 C10.8999625,5.9029994 10.2700375,5.9029994 9.88,6.29100179 L5.59,10.5940937 C5.21441221,10.9677124 5.00223279,11.4751499 5,12.0051075 L5,12.0051075 C5.00486659,12.5315906 5.2168443,13.0349503 5.59,13.4061142 L9.88,17.7092061 C10.1336586,17.9612595 10.502421,18.0587438 10.847378,17.9649378 C11.1923351,17.8711317 11.4610796,17.6002867 11.5523781,17.2544273 C11.6436765,16.9085679 11.5436586,16.5402384 11.29,16.2881851 L8,13.0058266 L18,13.0058266 C18.5522847,13.0058266 19,12.5577894 19,12.0051075 C19,11.4524257 18.5522847,11.0043885 18,11.0043885 Z" id="Shape"></path>
        </g>
    </g>
</svg>