<svg width="64" height="64" xmlns="http://www.w3.org/2000/svg"><defs><linearGradient x1="84.443%" y1="72.141%" x2="10.713%" y2="17.064%" id="linearGradient-1"><stop stop-color="#259CFF" offset="0%"/><stop stop-color="#8238FF" offset="28.055%"/><stop stop-color="#F400EA" offset="53.337%"/><stop stop-color="#FF2A19" offset="78.895%"/><stop stop-color="#FF6D04" offset="100%"/></linearGradient></defs><g id="Symbols" stroke="none" stroke-width="1" fill="none" fill-rule="evenodd"><g id="Icons/Features/Blockchain"><path d="M63.063 19.152c.58-.335.937-.954.937-1.624V7.093c0-.67-.357-1.29-.938-1.624L54.026.25a1.875 1.875 0 0 0-1.875 0L43.112 5.47c-.58.335-.937.954-.937 1.624v1.945h-20.35V7.093c0-.67-.357-1.29-.938-1.624L11.85.25a1.875 1.875 0 0 0-1.875 0L.938 5.47C.358 5.804 0 6.423 0 7.093v10.435c0 .67.357 1.289.937 1.624l8.1 4.677v16.342l-8.1 4.676c-.58.335-.937.954-.937 1.624v10.435c0 .67.357 1.289.937 1.624l9.038 5.219c.58.335 1.295.335 1.875 0l9.038-5.219c.58-.335.937-.954.937-1.624v-1.943h20.35v1.943c0 .67.357 1.289.937 1.624l9.038 5.219c.58.335 1.295.335 1.875 0l9.038-5.219c.58-.335.937-.954.937-1.624V46.471c0-.67-.357-1.289-.938-1.624l-8.1-4.676V23.829l8.1-4.677Zm-2.813-2.706-5.288 3.053v-6.106l5.288-3.053v6.106ZM53.087 4.04l5.288 3.053-5.288 3.052L47.8 7.093l5.288-3.053Zm-7.162 6.3 5.288 3.053v6.106l-5.288-3.053V10.34Zm-27.85 6.106-5.287 3.053v-6.106l5.287-3.053v6.106ZM10.913 4.04 16.2 7.093l-5.287 3.052-5.288-3.052 5.287-3.053Zm-7.163 6.3 5.287 3.053v6.106L3.75 16.446V10.34Zm5.287 48.537L3.75 55.824v-6.105l5.287 3.052v6.106Zm1.875-9.353L5.625 46.47l5.287-3.053 5.288 3.053-5.287 3.053Zm7.163 6.3-5.287 3.053v-6.106l5.287-3.052v6.105Zm3.75-4.611V46.47c0-.67-.357-1.289-.938-1.624l-8.1-4.676V23.829l8.1-4.677c.58-.335.938-.954.938-1.624v-4.74h20.35v4.74c0 .67.357 1.289.937 1.624l8.1 4.677v16.342l-8.1 4.676c-.58.335-.937.954-.937 1.624v4.742h-20.35Zm29.387 7.664-5.287-3.053v-6.105l5.288 3.052v6.106Zm9.038-3.053-5.288 3.053v-6.106l5.288-3.052v6.105Zm-7.163-6.3L47.8 46.47l5.288-3.053 5.287 3.053-5.288 3.053Z" id="Shape" fill="#0B1621"/><path d="M42.913 37.217V26.782c0-.67-.358-1.289-.938-1.624l-9.038-5.218a1.875 1.875 0 0 0-1.874 0l-9.038 5.218c-.58.335-.938.954-.938 1.624v10.435c0 .67.358 1.289.938 1.624l9.037 5.219c.58.335 1.296.335 1.876 0l9.037-5.22c.58-.334.938-.953.938-1.623Zm-12.788 1.97-5.288-3.052v-6.106l5.288 3.053v6.106ZM32 29.835l-5.287-3.052L32 23.729l5.287 3.053L32 29.834Zm7.163 6.3-5.288 3.054v-6.106l5.288-3.053v6.106Z" id="Shape" fill="url('#linearGradient-1')" fill-rule="nonzero"/></g></g></svg>