<?xml version="1.0" encoding="UTF-8"?>
<svg width="463px" height="160px" viewBox="0 0 463 160" version="1.1" xmlns="http://www.w3.org/2000/svg" xmlns:xlink="http://www.w3.org/1999/xlink">
    <title>Brush bg@3x</title>
    <g id="Design" stroke="none" stroke-width="1" fill="none" fill-rule="evenodd">
        <g id="Hp-1" transform="translate(-779.000000, -222.000000)" fill="#FFFFFF" fill-rule="nonzero">
            <g id="H1" transform="translate(340.000000, 222.000000)">
                <path d="M680.034689,7.48699273 C683.745787,11.6958026 685.093516,15.8483641 685.548631,20.2221141 C685.74047,22.0657259 685.718004,23.7256003 685.571797,25.422306 C685.405424,27.3530308 685.099139,29.217505 684.611878,31.4438131 L684.373988,32.498591 L684.109501,33.6141064 L683.817518,34.799712 L682.210163,41.0207122 L681.918899,42.2245825 L681.688827,43.3131963 L681.270255,45.2492316 L680.900568,46.9047693 L680.506105,48.6185937 L679.976986,50.8448885 L679.392558,53.2298711 L678.450306,56.9687327 L676.960239,62.743622 L675.51197,68.3160413 L674.969288,70.421986 L676.654968,68.1091429 L679.200601,64.6401059 L681.561472,61.4599939 L682.901816,59.6754761 L684.192963,57.9740155 L685.441408,56.3477537 L686.253188,55.3014756 L687.0508,54.2827981 L687.836167,53.2893929 L688.611215,52.3189315 L689.758645,50.9011656 L690.893679,49.5219259 L692.02281,48.1733539 L693.152533,46.8475913 L693.909217,45.9725408 L694.670975,45.1018066 L695.439731,44.2330605 L696.610194,42.9285755 L697.404862,42.0546125 L697.792531,41.6314654 C708.634988,29.8250444 719.847715,20.7717118 732.660066,14.2313646 C736.713877,12.162007 740.727023,10.8623918 745.367272,10.7045463 C753.585676,10.424984 761.565235,14.186816 766.297333,21.5642757 C769.5,26.557326 770.412514,31.5724056 770.205591,36.7775364 C770.093657,39.5932317 769.626325,42.3636254 768.878917,45.3334013 L768.664057,46.1720104 L768.444492,46.9974092 L768.140853,48.0873129 L767.982991,48.6315366 L767.820284,49.1775425 C767.627396,49.8162503 767.423368,50.4620693 767.203826,51.1271525 L766.916515,51.9825616 L766.515255,53.1334278 L765.962819,54.652606 L765.474879,55.9471666 L764.800322,57.6842343 L764.046019,59.575426 L763.023621,62.0815627 L761.859458,64.8844802 L759.308213,70.9294457 L756.413746,77.7403714 L755.481986,79.9614541 L754.348792,82.7005707 L753.889644,83.8251274 L755.64157,82.1603052 L757.608479,80.3068465 L759.338236,78.6934312 L760.27461,77.8044538 L760.803705,77.2920177 L761.588174,76.5179636 L762.362333,75.7368844 L763.408042,74.6547345 L764.482305,73.5120401 L765.315357,72.606088 L766.474052,71.3206448 L767.700685,69.9326043 L769.009579,68.4266747 L770.783193,66.3551848 L773.573039,63.048632 L778.074916,57.6677122 L779.801209,55.6237817 L781.451741,53.6875709 L783.03355,51.8525963 L784.553676,50.1123747 L785.536301,49.0016659 L786.496725,47.928267 L787.437034,46.890257 L788.359313,45.8857149 L789.265648,44.9127198 L790.158124,43.9693506 L791.038828,43.0536864 L791.909845,42.1638061 L792.77326,41.2977888 C793.06003,41.0128801 793.345881,40.7316283 793.63116,40.4537135 L794.485629,39.6296591 L795.338753,38.8237047 C795.480944,38.6907805 795.623166,38.5585305 795.765462,38.4269146 L796.62048,37.6445083 L797.479367,36.8753995 C797.622953,36.7482161 797.766787,36.6215067 797.910913,36.4952313 L798.779514,35.7424669 L799.657199,34.9981974 L800.546053,34.2605019 L801.448161,33.5274594 L802.365609,32.797149 L803.300483,32.0676495 L804.254869,31.3370401 C804.415675,31.2150726 804.577381,31.0929789 804.74003,30.9707188 C807.562639,28.8490221 810.820499,27.2469232 814.887258,26.5555545 C820.978976,25.5199332 827.283903,27.0161508 832.296035,30.8628583 C835.916672,33.6416221 838.163035,36.9722278 839.595328,40.5451638 C840.382399,42.5085566 840.844665,44.3694415 841.130698,46.2545114 C841.409918,48.0946807 841.519712,49.7978179 841.506068,51.6354163 L841.501079,51.9308353 L841.71427,51.6876343 C847.783086,44.7804435 853.936966,38.5240401 860.25079,32.9315814 L861.366669,31.9515718 C862.267868,31.1668634 863.134942,30.4703884 864.090328,29.7993615 C866.513643,28.0973176 868.799558,26.8695606 872.446639,26.0626753 C884.463973,23.4039438 897.256061,31.186877 898.901753,44.7564729 C899.256167,47.6788033 899.023396,50.1019584 898.490218,52.4264261 C898.217762,53.6142407 897.885045,54.6563543 897.499619,55.6605595 L897.376751,55.9757222 L897.123738,56.5947449 L896.858446,57.2042833 C896.813035,57.305455 896.766984,57.4065109 896.720229,57.5075906 L896.430724,58.115471 C896.380893,58.2172043 896.330227,58.3192407 896.278664,58.4217199 L895.957996,59.0430245 C895.902584,59.1478332 895.846145,59.2533638 895.788616,59.3597561 L895.429833,60.0095674 C895.367683,60.119965 895.304312,60.2315036 895.239658,60.3443228 L894.835809,61.0377229 L894.165496,62.1501144 L893.408468,63.3693654 L892.058315,65.488242 L888.973589,70.2110362 C889.962365,70.7457276 890.932324,71.3549368 891.874426,72.0392649 C901.262603,78.8586944 904.826764,90.7915407 899.552743,98.7995387 L899.995595,99.3009821 L897.911777,101.121015 L895.081466,103.537624 L891.786866,106.329434 L889.847523,107.987362 L888.199784,109.416677 L887.050834,110.432661 L886.018718,111.365989 L885.072415,112.244951 L884.180907,113.097839 L883.313175,113.952945 L883.093783,114.174514 L882.85187,114.510621 L882.598338,114.881255 L882.400765,115.180887 L882.00219,115.810463 L881.542842,116.570187 L880.978161,117.533918 L879.292484,120.466027 L878.338098,122.097432 L877.739733,123.096739 L877.164576,124.034432 L876.606535,124.918243 C876.514617,125.061485 876.423158,125.202804 876.332031,125.342361 L875.788247,126.159854 C875.427031,126.692475 875.067075,127.202065 874.700259,127.698938 L874.143874,128.435998 C873.580314,129.166097 872.992182,129.879181 872.352069,130.610055 L871.693614,131.348147 C865.94333,137.682004 858.605181,141.841846 849.599693,142.493557 C843.697235,142.920708 837.97157,141.837331 833.096781,139.168957 L832.821281,139.015565 L830.637355,142.384623 L829.734271,143.754464 L828.742925,145.230587 L827.87943,146.479962 L827.262729,147.341883 L826.834448,147.920912 L826.429107,148.451331 L826.040934,148.941394 L825.78884,149.24976 L825.351088,149.76662 L824.972891,150.195178 L824.782177,150.405609 L824.393692,150.824242 L823.781855,151.463029 L822.879615,152.380911 C819.077693,156.222943 815.24851,158.849736 808.800653,159.772011 C802.401053,160.687382 795.7915,158.838481 790.74466,154.367527 C787.114048,151.1512 785.076184,147.448075 783.92947,143.535221 C782.563611,138.874593 782.534766,134.775496 783.288441,128.837085 L783.461718,127.53554 L783.657737,126.172441 L783.848709,124.916186 L784.031099,123.776168 L784.337415,121.961986 L784.564078,120.679969 L784.938837,118.642744 L785.356617,116.462051 L785.818883,114.130659 L786.013043,113.168527 L783.974318,115.105671 L777.873057,120.945248 L775.598789,123.104318 L773.405736,125.165911 L771.985812,126.488082 L770.597472,127.769824 L769.238912,129.012295 L767.908328,130.216653 L766.603915,131.384056 L765.323869,132.515662 L764.066386,133.612629 L762.82966,134.676115 L761.611889,135.707278 L760.411267,136.707275 L759.225991,137.677265 L758.054255,138.618406 C757.665733,138.92744 757.279166,139.231858 756.894255,139.531855 L755.744188,140.41877 L754.602249,141.28031 C754.222756,141.56339 753.844318,141.842433 753.466633,142.117632 L752.335536,142.931895 L751.207154,143.724256 C750.267465,144.375752 749.328725,145.00564 748.386234,145.616936 L747.253144,146.341759 C746.685398,146.699901 746.115625,147.051784 745.542811,147.398059 L744.392826,148.083326 L743.232925,148.754796 C742.844438,148.976448 742.453998,149.195995 742.061303,149.413628 L740.876158,150.060979 C740.677406,150.167978 740.478016,150.274548 740.27795,150.380711 L739.069134,151.013013 C738.866212,151.117649 738.662539,151.221927 738.458076,151.325872 L737.221531,151.94573 C736.805993,152.151143 736.386998,152.355415 735.964245,152.558739 C727.98674,156.395528 718.083724,156.190742 710.226829,148.987878 C704.99682,144.193231 703.209704,139.016807 702.655866,133.305391 C702.383463,130.496248 702.457193,128.138133 702.808169,125.081144 L702.943442,123.971315 L703.101066,122.792214 L703.3912,120.780581 L703.796596,118.011528 L703.872714,117.406609 L703.894883,117.199518 L703.986664,114.623026 L704.05809,112.839145 L704.133873,111.1255 L704.214755,109.477028 L704.347259,107.11545 L704.444131,105.607768 L704.548695,104.147546 L704.597167,103.505943 L701.459989,107.801804 L699.117738,110.971657 L697.374065,113.302359 L696.128094,114.948429 L694.924989,116.519773 L693.371839,118.518362 L692.611063,119.483882 L691.48208,120.899444 L690.733622,121.826265 L689.985383,122.743517 L689.331149,123.538004 C688.347499,124.727323 687.351493,125.908313 686.316057,127.114962 C677.604546,137.266954 668.899833,145.506243 659.272644,152.253928 C655.965927,154.571602 652.381767,156.238844 647.971666,156.882116 C640.82095,157.925143 633.50499,155.671913 628.197791,150.372533 C624.509367,146.689543 622.606975,142.571928 621.639752,138.197563 C621.112554,135.813256 620.913991,133.497743 620.914132,131.069171 L620.915652,130.670482 L620.927777,129.874172 C620.933858,129.608653 620.941994,129.342839 620.952227,129.076091 L620.989259,128.272407 C621.003729,128.003153 621.020339,127.732326 621.039132,127.459287 L621.102103,126.632897 L621.178429,125.789404 L621.268368,124.924976 L621.372178,124.03578 L621.490115,123.117981 L621.622439,122.167748 L621.769406,121.181247 L621.931274,120.154645 L622.108301,119.084109 L622.402826,117.387545 L622.850985,114.935915 L623.229825,112.938265 L624.511281,106.324674 L625.067998,103.340029 L625.190491,102.644375 L624.163462,103.78427 L622.667018,105.426184 L621.14237,107.08061 L619.593447,108.743368 L618.024177,110.410276 C617.498132,110.96614 616.969351,111.521998 616.438488,112.077155 L614.84031,113.739824 L613.233572,115.394101 L611.622201,117.035807 L610.010127,118.660761 C609.473089,119.199155 608.936588,119.734061 608.401279,120.264782 L606.799585,121.843689 C606.267316,122.365342 605.736894,122.882112 605.208974,123.393303 L603.633375,124.909441 L602.076716,126.387925 L600.542926,127.824573 C600.035911,128.296018 599.533362,128.759794 599.035935,129.215204 L597.559669,130.555638 C595.856812,132.08857 594.224709,133.510481 592.691434,134.791497 L592.020068,135.349938 L591.808557,135.561274 L591.350517,136.046986 L589.81043,137.778137 L588.326396,139.475172 L587.488193,140.418691 C587.352447,140.570186 587.218557,140.718901 587.086343,140.864982 L586.311713,141.71106 C585.933001,142.119482 585.566107,142.506868 585.206139,142.877204 L584.493989,143.596325 C582.84709,145.226744 581.28002,146.543756 579.295692,147.952631 C571.928018,153.18369 563.070444,155.412233 553.623392,152.597893 C546.880453,150.589125 541.198568,145.928269 538.185073,139.219642 C535.892128,134.115097 535.590659,129.150458 536.401741,124.278892 C536.974116,120.841055 537.860627,118.186627 539.383824,114.77522 L539.915579,113.607935 L540.497151,112.371899 L542.259332,108.706949 L542.610262,107.920297 L542.627753,107.875144 L542.979072,106.659683 C545.253036,98.8717451 547.691018,91.7492079 550.456814,85.0082447 L550.976653,83.7549998 L545.769914,87.9676089 L525.076501,104.842999 L521.866728,107.422074 L519.579854,109.243202 L517.387336,110.973637 L515.281171,112.619066 L513.253355,114.185174 L511.941053,115.187986 L510.657645,116.159756 L509.400758,117.102169 L508.168023,118.016909 L506.957067,118.90566 L505.765519,119.770109 L504.591008,120.611938 C497.152152,125.910521 490.785653,129.793732 484.860311,132.414252 C475.258634,136.660653 466.216958,138.056381 456.895179,134.302552 C446.055666,129.93754 439.595355,120.270293 439.041725,109.031558 C438.706028,102.216884 440.412068,95.6276374 443.577988,88.4321758 C443.743302,88.0564504 443.912571,87.6791631 444.085868,87.3001286 L444.617922,86.1575973 L445.174602,85.0034685 C445.269459,84.8100854 445.365362,84.6161726 445.462319,84.4217071 L446.056788,83.2480943 C446.461637,82.4610158 446.883659,81.6643499 447.323457,80.8566121 L447.996562,79.6365157 C448.110993,79.4317205 448.226555,79.2261869 448.343255,79.0198916 L449.057207,77.7727957 L449.798956,76.5063082 C450.050889,76.0807901 450.307531,75.6518544 450.568956,75.2193157 L451.367659,73.9107049 L452.195518,72.5793622 L453.052986,71.2241743 L453.940517,69.8440276 C454.090969,69.6118614 454.242692,69.3786089 454.395697,69.1442469 L455.32917,67.7245745 L456.293838,66.2771599 C456.457241,66.0335504 456.621962,65.7887386 456.788012,65.5427013 L457.800321,64.0515856 L458.844957,62.529944 L460.473516,60.1878101 L461.600953,58.5849827 L462.762301,56.9477324 L463.958015,55.2749459 L465.98309,52.4672898 L479.366549,34.1942111 L480.29159,32.9175867 L481.497554,31.2345315 L482.975692,29.1446915 L484.309873,27.2241666 L485.218924,25.8903239 L485.782471,25.0500565 L486.312729,24.2478522 L487.04701,23.11384 L487.496669,22.4026457 L488.112863,21.4007051 C488.177506,21.293603 488.240886,21.1878893 488.303017,21.0835444 L488.485673,20.7745961 L488.659067,20.7571431 C494.550271,12.9844662 506.892023,12.2417249 516.397706,19.1465086 C526.002823,26.1235199 529.511654,38.4529977 523.696216,46.4555245 C523.589315,46.6026285 523.480008,46.7472464 523.368359,46.8893766 L522.628165,48.0282057 L521.777695,49.3130107 C521.632146,49.5309073 521.484665,49.750739 521.335205,49.9725866 L520.414327,51.3285077 L519.443733,52.7366845 L518.300505,54.3715269 L521.400064,51.8582794 L524.279425,49.538775 L526.129168,48.0573756 L528.815494,45.9200955 L530.55712,44.5444461 L532.26702,43.2022861 L534.786787,41.2408261 L536.714138,39.7545713 L538.617066,38.2999705 L540.496091,36.8769361 L542.351735,35.4853806 L544.184518,34.1252164 C544.488106,33.9011335 544.790763,33.6783548 545.0925,33.4568787 L546.891969,32.1436372 L548.66988,30.8615682 C548.964431,30.6504828 549.258105,30.4406927 549.550914,30.2321959 L551.297464,28.9967212 L553.023759,27.7922 C553.309816,27.5940211 553.59505,27.3971282 553.879473,27.2015196 L555.576361,26.0432644 L557.254295,24.9157438 L558.913797,23.8188702 C560.014103,23.0978173 561.102468,22.3971374 562.179587,21.7167136 L563.786917,20.7112556 C564.053428,20.5462064 564.319258,20.3824196 564.584418,20.2198933 L566.167421,19.2598476 C566.429943,19.1023561 566.691816,18.9461216 566.953051,18.7911422 L568.512898,17.8763116 C578.085828,12.3275517 586.815349,8.49198366 595.251206,6.27720302 C599.980226,5.03562904 604.476982,4.62075511 609.276593,5.5625898 C617.372091,7.15118132 624.256288,12.5509088 627.350274,20.6227749 C628.150941,22.7116258 628.639624,24.7513899 628.872454,26.7611281 L628.914344,27.1682716 L629.183191,26.8290336 C635.277365,19.1133624 640.268333,13.5505454 646.331873,7.70635322 L647.545072,6.54674462 C649.916567,4.29831881 652.512044,2.48664794 656.236213,1.21250054 C664.315116,-1.55152938 673.747563,0.356671884 680.034689,7.48699273 Z" id="Brush-bg"></path>
            </g>
        </g>
    </g>
</svg>