<?xml version="1.0" encoding="UTF-8"?>
<svg width="120px" height="120px" viewBox="0 0 120 120" version="1.1" xmlns="http://www.w3.org/2000/svg" xmlns:xlink="http://www.w3.org/1999/xlink">
    <title>Icons/Social/Discord</title>
    <g id="Symbols" stroke="none" stroke-width="1" fill="none" fill-rule="evenodd">
        <g id="Icons/Social/Discord" fill="#5865F2" fill-rule="nonzero">
            <path d="M77.3060087,74.0620614 C72.1827621,74.0620614 67.9589299,69.3600595 67.9589299,63.5821758 C67.9589299,57.8042922 72.0973747,53.1022903 77.3060087,53.1022903 C82.5146428,53.1022903 86.7327825,57.8498321 86.6530875,63.5821758 C86.5733926,69.3145195 82.5544902,74.0620614 77.3060087,74.0620614 Z M42.7525567,74.0620614 C37.6293101,74.0620614 33.4054779,69.3600595 33.4054779,63.5821758 C33.4054779,57.8042922 37.5439226,53.1022903 42.7525567,53.1022903 C47.9611907,53.1022903 52.1793304,57.8498321 52.0996355,63.5821758 C52.0199405,69.3145195 47.9611907,74.0620614 42.7582492,74.0620614 L42.7525567,74.0620614 Z M96.0286288,26.5695654 C89.2873088,23.4755351 82.1730171,21.269301 74.8639278,20.0061173 C74.7274971,19.9790447 74.5892634,20.0435538 74.5223781,20.1655072 C73.5533784,21.9245689 72.673719,23.7313855 71.8867523,25.5790711 C64.0079703,24.3824985 55.9936701,24.3824985 48.1148881,25.5790711 C47.3232794,23.7267294 46.4300983,21.9194628 45.4394149,20.1655072 C45.3689172,20.0474806 45.2336066,19.9843357 45.0978651,20.0061173 C37.788143,21.2666677 30.673516,23.4730057 23.9331642,26.5695654 C23.8764316,26.5944422 23.8287318,26.6361796 23.7965443,26.6891078 C10.3167132,46.8291594 6.62228318,66.4739639 8.42680448,85.8910685 C8.43724915,85.9878172 8.48656121,86.0761679 8.56342439,86.1358458 C16.4119727,91.9504102 25.1913944,96.3892057 34.5268996,99.2627421 C34.6613884,99.3029417 34.8066922,99.2552639 34.8912194,99.1431997 C36.8959955,96.413611 38.6723756,93.5234234 40.2023184,90.5019904 C40.2435556,90.4180652 40.2472713,90.3205899 40.2125429,90.2337688 C40.1778144,90.1469478 40.1078994,90.0789248 40.0201585,90.0465907 C37.218366,88.974491 34.5059398,87.6820437 31.9083514,86.1813858 C31.8063556,86.1260866 31.7401242,86.0220608 31.7331754,85.9062469 C31.7262266,85.790433 31.7795444,85.6792343 31.8741964,85.6121362 C32.443446,85.2022765 32.9671557,84.7810317 33.4851728,84.348402 C33.5791126,84.2700347 33.7096137,84.2523396 33.8210301,84.3028621 C50.8359013,92.0731194 69.2625116,92.0731194 86.0781454,84.3028621 C86.1900133,84.2483371 86.3233833,84.2638969 86.4196952,84.3427095 C86.9377123,84.7696467 87.484192,85.2022765 88.0363641,85.6064437 C88.1315357,85.6726186 88.1858561,85.7831928 88.1800675,85.8989652 C88.1742789,86.0147377 88.1091996,86.1193418 88.0079016,86.1756933 C85.4259608,87.6808941 82.7219796,88.9662373 79.924557,90.0181283 C79.8362774,90.051431 79.7664636,90.1209117 79.7327389,90.209031 C79.6990143,90.2971503 79.7046013,90.395488 79.7480896,90.4792204 C81.3010415,93.4853079 83.0723636,96.3734571 85.0478036,99.1204297 C85.1297782,99.2360406 85.2763913,99.2864389 85.4121233,99.2456646 C94.7635778,96.3812509 103.557595,91.9418894 111.415446,86.1187683 C111.493065,86.0622636 111.542792,85.9752423 111.552066,85.8796835 C113.720907,63.4512484 107.920253,43.9658339 96.1823262,26.6777228 C96.1472666,26.6253667 96.0948532,26.5870646 96.0343213,26.5695654 L96.0286288,26.5695654 Z" id="Shape"></path>
        </g>
    </g>
</svg>