<svg width="64" height="64" xmlns="http://www.w3.org/2000/svg"><defs><linearGradient x1="93.836%" y1="66.267%" x2="0%" y2="25.802%" id="linearGradient-1"><stop stop-color="#259CFF" offset="0%"/><stop stop-color="#8238FF" offset="28.055%"/><stop stop-color="#F400EA" offset="53.337%"/><stop stop-color="#FF2A19" offset="78.895%"/><stop stop-color="#FF6D04" offset="100%"/></linearGradient></defs><g id="Symbols" stroke="none" stroke-width="1" fill="none" fill-rule="evenodd"><g id="Icons/Features/Eternal"><path d="M64 48c0 2.062-.299 4.008-.888 5.786a2.5 2.5 0 1 1-4.746-1.572c.42-1.27.634-2.688.634-4.214 0-6.785-4.215-11-11-11-6.276 0-9.627 5.03-13.236 11.116C36.067 50.958 40.423 59 48 59c1.361 0 2.645-.174 3.814-.517a2.5 2.5 0 1 1 1.407 4.798C51.594 63.758 49.838 64 48 64c-5.325 0-10.209-2.669-14.124-7.718a30.071 30.071 0 0 1-2.127-3.147C28.159 58.791 23.688 64 16 64c-4.674 0-8.676-1.531-11.573-4.427C1.531 56.676 0 52.674 0 48s1.531-8.676 4.427-11.573C7.324 33.531 11.326 32 16 32c4.194 0 8.057 1.664 11.48 4.945a2.5 2.5 0 1 1-3.46 3.61C21.525 38.163 18.901 37 16 37 9.215 37 5 41.215 5 48s4.215 11 11 11c6.548 0 9.881-5.658 13.74-12.21C33.826 39.858 38.455 32 48 32c4.675 0 8.676 1.531 11.573 4.427C62.469 39.324 64 43.325 64 48Z" id="Path" fill="#0B1621"/><path d="M39.5 0c5.794 0 10 4.406 10 10.476 0 6.357-5.358 10.36-10.085 13.892-2.176 1.626-4.232 3.162-5.466 4.698a2.5 2.5 0 0 1-3.898 0c-1.234-1.536-3.29-3.072-5.466-4.698C19.858 20.836 14.5 16.833 14.5 10.476 14.5 4.406 18.706 0 24.5 0c3.09 0 5.695 1.107 7.5 3.15C33.805 1.107 36.41 0 39.5 0Zm0 5c-1.987 0-3.37.69-4.228 2.112a6.04 6.04 0 0 0-.78 2.223c-.101 1.302-1.186 2.33-2.49 2.33h-.024a2.478 2.478 0 0 1-2.47-2.318 6.016 6.016 0 0 0-.854-2.355C27.79 5.652 26.431 5 24.5 5c-2.99 0-5 2.2-5 5.476 0 3.493 3.378 6.342 6.97 9.055l.83.624.278.207c1.58 1.18 3.102 2.318 4.422 3.525 1.32-1.207 2.843-2.345 4.422-3.525l.277-.207.832-.624c3.591-2.713 6.969-5.562 6.969-9.055C44.5 7.201 42.49 5 39.5 5Z" id="Combined-Shape" fill="url('#linearGradient-1')" fill-rule="nonzero"/></g></g></svg>