<?xml version="1.0" encoding="UTF-8"?>
<svg width="64px" height="64px" viewBox="0 0 64 64" version="1.1" xmlns="http://www.w3.org/2000/svg" xmlns:xlink="http://www.w3.org/1999/xlink">
    <title>Icons/Features/Gift</title>
    <defs>
        <linearGradient x1="93.8356236%" y1="72.1407064%" x2="0%" y2="17.0640055%" id="linearGradient-1">
            <stop stop-color="#259CFF" offset="0%"></stop>
            <stop stop-color="#8238FF" offset="28.054715%"></stop>
            <stop stop-color="#F400EA" offset="53.3368142%"></stop>
            <stop stop-color="#FF2A19" offset="78.8953341%"></stop>
            <stop stop-color="#FF6D04" offset="100%"></stop>
        </linearGradient>
    </defs>
    <g id="Symbols" stroke="none" stroke-width="1" fill="none" fill-rule="evenodd">
        <g id="Icons/Features/Gift">
            <path d="M31.61625,0 C46.880875,0 59.2325,12.353125 59.2325,27.61625 C59.2325,35.285 56.052,42.572625 50.471625,47.789125 L51.58675,52.92375 C54.62425,53.619 56.897875,56.3415 56.898,59.58675 L56.898,62.125 C56.898,63.1605 56.0585,64 55.023,64 L8.209625,64 C7.174125,64 6.334625,63.1605 6.334625,62.125 L6.334625,59.58675 C6.334625,56.3415 8.60825,53.619 11.64575,52.92375 L12.760875,47.789125 C7.1805,42.572625 4,35.284875 4,27.61625 C4,12.35175 16.353125,0 31.61625,0 Z M50.061125,56.5 L13.171375,56.5 C11.469375,56.5 10.084625,57.88475 10.084625,59.58675 L10.084625,60.25 L53.147875,60.25 L53.147875,59.58675 C53.147875,57.88475 51.763125,56.5 50.061125,56.5 Z M46.897125,49 L16.33525,49 L15.520875,52.75 L47.7115,52.75 L46.897125,49 Z M31.61625,3.75 C18.456375,3.75 7.75,14.456375 7.75,27.61625 C7.75,34.341375 10.5785,40.728875 15.534875,45.25 L47.697625,45.25 C52.654,40.728875 55.4825,34.341375 55.4825,27.61625 C55.4825,14.456375 44.776125,3.75 31.61625,3.75 Z M18.98625,32.4625 C20.02175,32.4625 20.86125,33.302 20.86125,34.3375 L20.86125,35.434375 L21.958,35.434375 C22.9935,35.434375 23.833,36.273875 23.833,37.309375 C23.833,38.344875 22.9935,39.184375 21.958,39.184375 L20.86125,39.184375 L20.86125,40.281125 C20.86125,41.316625 20.02175,42.156125 18.98625,42.156125 C17.95075,42.156125 17.11125,41.316625 17.11125,40.281125 L17.11125,39.184375 L16.0145,39.184375 C14.978875,39.184375 14.1395,38.34475 14.1395,37.30925 C14.1395,36.27375 14.979,35.43425 16.0145,35.43425 L17.11125,35.43425 L17.11125,34.3375 C17.11125,33.302 17.95075,32.4625 18.98625,32.4625 Z M41.16775,36.531125 C42.2032839,36.531125 43.04275,37.3705911 43.04275,38.406125 C43.04275,39.4416589 42.2032839,40.281125 41.16775,40.281125 C40.1322161,40.281125 39.29275,39.4416589 39.29275,38.406125 C39.29275,37.3705911 40.1322161,36.531125 41.16775,36.531125 Z M49.812625,30.125 C50.8481589,30.125 51.687625,30.9644661 51.687625,32 C51.687625,33.0355339 50.8481589,33.875 49.812625,33.875 C48.7770911,33.875 47.937625,33.0355339 47.937625,32 C47.937625,30.9644661 48.7770911,30.125 49.812625,30.125 Z M15.07,18.07825 C16.1055339,18.07825 16.945,18.9177161 16.945,19.95325 C16.945,20.9887839 16.1055339,21.82825 15.07,21.82825 C14.0344661,21.82825 13.195,20.9887839 13.195,19.95325 C13.195,18.9177161 14.0344661,18.07825 15.07,18.07825 Z M42.2645,10.25975 C43.3,10.25975 44.1395,11.09925 44.1395,12.13475 L44.1395,13.2315 L45.23625,13.2315 C46.27175,13.2315 47.11125,14.071 47.11125,15.1065 C47.11125,16.142 46.27175,16.9815 45.23625,16.9815 L44.1395,16.9815 L44.1395,18.07825 C44.1395,19.11375 43.3,19.95325 42.2645,19.95325 C41.229,19.95325 40.3895,19.11375 40.3895,18.07825 L40.3895,16.9815 L39.29275,16.9815 C38.25725,16.9815 37.41775,16.142 37.41775,15.1065 C37.41775,14.071 38.25725,13.2315 39.29275,13.2315 L40.3895,13.2315 L40.3895,12.13475 C40.3895,11.09925 41.229,10.25975 42.2645,10.25975 Z M22.53375,10.25975 C23.5692839,10.25975 24.40875,11.0992161 24.40875,12.13475 C24.40875,13.1702839 23.5692839,14.00975 22.53375,14.00975 C21.4982161,14.00975 20.65875,13.1702839 20.65875,12.13475 C20.65875,11.0992161 21.4982161,10.25975 22.53375,10.25975 Z" id="Shape" fill="#0B1621"></path>
            <path d="M18.624875,28.02625 L27.007125,30.859125 L29.84,39.241375 C30.41275,40.935875 32.819875,40.935875 33.392625,39.241375 L36.2255,30.859125 L44.60775,28.02625 C46.30225,27.4535 46.30225,25.046375 44.60775,24.473625 L36.2255,21.64075 L33.392625,13.2585 C32.819875,11.564 30.41275,11.564 29.84,13.2585 L27.007125,21.64075 L18.624875,24.473625 C16.930375,25.0465 16.930375,27.4535 18.624875,28.02625 L18.624875,28.02625 Z M29.08675,24.896375 C29.640625,24.709125 30.0755,24.27425 30.26275,23.720375 L31.61625,19.71525 L32.969875,23.7205 C33.157125,24.274375 33.592,24.70925 34.145875,24.8965 L38.151,26.25 L34.14575,27.603625 C33.591875,27.790875 33.157,28.22575 32.96975,28.779625 L31.61625,32.78475 L30.262625,28.7795 C30.075375,28.225625 29.6405,27.79075 29.086625,27.6035 L25.0815,26.25 L29.08675,24.896375 Z" id="Shape" fill="url('#linearGradient-1')" fill-rule="nonzero"></path>
        </g>
    </g>
</svg>