<?xml version="1.0" encoding="UTF-8"?>
<svg width="64px" height="64px" viewBox="0 0 64 64" version="1.1" xmlns="http://www.w3.org/2000/svg" xmlns:xlink="http://www.w3.org/1999/xlink">
    <title>Icons/Features/Gift 2</title>
    <defs>
        <linearGradient x1="93.8356236%" y1="64.3757988%" x2="0%" y2="28.6148995%" id="linearGradient-1">
            <stop stop-color="#259CFF" offset="0%"></stop>
            <stop stop-color="#8238FF" offset="28.054715%"></stop>
            <stop stop-color="#F400EA" offset="53.3368142%"></stop>
            <stop stop-color="#FF2A19" offset="78.8953341%"></stop>
            <stop stop-color="#FF6D04" offset="100%"></stop>
        </linearGradient>
    </defs>
    <g id="Symbols" stroke="none" stroke-width="1" fill="none" fill-rule="evenodd">
        <g id="Icons/Features/Gift-2">
            <path d="M60.25,30.875 L60.25,49 C60.25,57.271 53.521,64 45.25,64 L18.75,64 C10.479,64 3.75,57.271 3.75,49 L3.75,30.875 C3.882,27.558 8.619125,27.5605 8.75,30.875 L8.75,49 C8.75,54.514 13.236,59 18.75,59 L29.5,59 L29.5,43.25 C29.632,39.933 34.369125,39.9355 34.5,43.25 L34.5,59 L45.25,59 C50.764,59 55.25,54.514 55.25,49 L55.25,30.875 C55.382,27.558 60.119125,27.5605 60.25,30.875 Z M51.5,0 L12.5,0 C5.6075,0 0,5.6075 0,12.5 L0,15 C0,19.82475 3.92525,23.75 8.75,23.75 C10.13075,23.75 11.25,22.63075 11.25,21.25 C11.25,19.92448 10.2184992,18.8399584 8.9143799,18.7553175 L8.75,18.75 C6.68225,18.75 5,17.06775 5,15 L5,12.5 C5,8.3645 8.3645,5 12.5,5 L29.5,5 L29.5,8.625 C29.632,11.942 34.369125,11.9395 34.5,8.625 L34.5,5 L51.5,5 C55.6355,5 59,8.3645 59,12.5 L59,15 C59,17.0010484 57.4245317,18.6410666 55.4488579,18.744792 L55.25,18.75 C53.86925,18.75 52.75,19.86925 52.75,21.25 C52.75,22.63075 53.86925,23.75 55.25,23.75 C60.07475,23.75 64,19.82475 64,15 L64,12.5 C64,5.6075 58.3925,0 51.5,0 Z" id="Shape" fill="#0B1621"></path>
            <path d="M40.56925,12.375 C45.3380446,12.375 49.233631,16.1613142 49.3712384,20.867409 L49.375,21.125 C49.48025,27.542 42.101125,32.183 36.42225,28.648875 C37.700125,32.356875 39.5675,34.946375 42.842,35.3985 C44.20975,35.587375 45.165375,36.84925 44.9765,38.217 C44.80375,39.46875 43.732125,40.375375 42.50325,40.37525 C37.542875,40.469625 33.855375,36.098375 32.0625,31.307875 C30.329125,36.088875 26.311875,40.473625 21.621875,40.375375 C20.392875,40.375375 19.321375,39.46875 19.1485,38.217 C18.959625,36.84925 19.91525,35.587375 21.283,35.3985 C24.583625,34.94275 26.4545,32.31525 27.733125,28.55975 C26.231125,29.43375 24.79225,29.875 23.43075,29.875 C18.57525,29.875 14.625,25.94975 14.625,21.125 C14.625,16.30025 18.57525,12.375 23.43075,12.375 C26.801,12.375 29.980625,14.989625 32,17.10225 C34.01925,14.989625 37.199,12.375 40.56925,12.375 Z M23.43075,17.375 C18.383625,17.58075 18.381125,24.668 23.43075,24.875 C24.896125,24.875 27.1955,22.952625 28.88925,21.10175 L28.4993394,20.6788807 C26.9001701,18.9899941 24.8562115,17.375 23.43075,17.375 Z M40.56925,17.375 C39.025,17.375 36.754875,19.270375 35.11075,21.10175 C36.8045,22.952625 39.103875,24.875 40.56925,24.875 C42.66775,24.875 44.375,23.19275 44.375,21.125 C44.375,19.05725 42.66775,17.375 40.56925,17.375 Z" id="Shape" fill="url('#linearGradient-1')" fill-rule="nonzero"></path>
        </g>
    </g>
</svg>