<svg width="64" height="64" xmlns="http://www.w3.org/2000/svg"><defs><linearGradient x1="93.836%" y1="64.376%" x2="0%" y2="28.615%" id="linearGradient-1"><stop stop-color="#259CFF" offset="0%"/><stop stop-color="#8238FF" offset="28.055%"/><stop stop-color="#F400EA" offset="53.337%"/><stop stop-color="#FF2A19" offset="78.895%"/><stop stop-color="#FF6D04" offset="100%"/></linearGradient></defs><g id="Symbols" stroke="none" stroke-width="1" fill="none" fill-rule="evenodd"><g id="Icons/Features/Gift-2"><path d="M60.25 30.875V49c0 8.271-6.729 15-15 15h-26.5c-8.271 0-15-6.729-15-15V30.875c.132-3.317 4.87-3.314 5 0V49c0 5.514 4.486 10 10 10H29.5V43.25c.132-3.317 4.87-3.315 5 0V59h10.75c5.514 0 10-4.486 10-10V30.875c.132-3.317 4.87-3.314 5 0ZM51.5 0h-39C5.607 0 0 5.607 0 12.5V15c0 4.825 3.925 8.75 8.75 8.75a2.5 2.5 0 0 0 .164-4.995l-.164-.005A3.754 3.754 0 0 1 5 15v-2.5C5 8.364 8.364 5 12.5 5h17v3.625c.132 3.317 4.87 3.315 5 0V5h17c4.136 0 7.5 3.364 7.5 7.5V15a3.755 3.755 0 0 1-3.551 3.745l-.199.005a2.5 2.5 0 1 0 0 5c4.825 0 8.75-3.925 8.75-8.75v-2.5C64 5.607 58.392 0 51.5 0Z" id="Shape" fill="#0B1621"/><path d="M40.57 12.375c4.768 0 8.664 3.786 8.801 8.492l.004.258c.105 6.417-7.274 11.058-12.953 7.524 1.278 3.708 3.146 6.297 6.42 6.75a2.5 2.5 0 0 1-.339 4.976c-4.96.095-8.648-4.277-10.44-9.067-1.734 4.78-5.751 9.166-10.441 9.067a2.5 2.5 0 0 1-.339-4.977c3.3-.455 5.171-3.083 6.45-6.838-1.502.874-2.94 1.315-4.302 1.315-4.856 0-8.806-3.925-8.806-8.75s3.95-8.75 8.806-8.75c3.37 0 6.55 2.615 8.569 4.727 2.02-2.112 5.199-4.727 8.57-4.727Zm-17.14 5c-5.046.206-5.049 7.293 0 7.5 1.466 0 3.765-1.922 5.46-3.773l-.39-.423c-1.6-1.689-3.644-3.304-5.07-3.304Zm17.14 0c-1.545 0-3.815 1.895-5.46 3.727 1.694 1.85 3.994 3.773 5.46 3.773 2.098 0 3.805-1.682 3.805-3.75s-1.707-3.75-3.806-3.75Z" id="Shape" fill="url('#linearGradient-1')" fill-rule="nonzero"/></g></g></svg>