<?xml version="1.0" encoding="UTF-8"?>
<svg width="101px" height="32px" viewBox="0 0 101 32" version="1.1" xmlns="http://www.w3.org/2000/svg" xmlns:xlink="http://www.w3.org/1999/xlink">
    <title>Logo/Full/Black</title>
    <g id="Symbols" stroke="none" stroke-width="1" fill="none" fill-rule="evenodd">
        <g id="Logo/Full/Black" fill="#0B1621" fill-rule="nonzero">
            <path d="M-9.9475983e-14,25.3166125 C2.9147992,28.6306992 7.42674864,31.1062821 13.6556346,31.1062821 C22.1604596,31.1062821 25.873834,27.3929078 25.873834,23.2003884 C25.873834,19.1600299 23.7570557,16.614927 14.0803552,15.7079672 L13.256347,15.6361823 C8.06560873,15.196966 6.94760356,13.8570595 6.94760356,11.7807641 C6.94760356,9.54475381 8.54475381,7.58824476 12.0984131,7.58824476 C15.9715024,7.58824476 18.6467291,9.185395 20.4435231,12.2199805 L26.4328365,6.66988337 C23.078821,3.15615283 18.4870141,1 12.1383419,1 C4.5518782,1 0.678788854,4.71337432 0.678788854,9.185395 L0.684539053,9.53043607 C0.818082925,13.4486481 3.32197884,15.6535244 12.7999251,16.4964924 L13.2164183,16.5322861 C18.4470853,16.9715024 19.4453042,17.9697213 19.4453042,20.2057317 C19.4453042,22.7212433 17.7283677,24.5180373 14.2146372,24.5180373 C10.7408354,24.5180373 8.22532376,23.1205309 6.30874346,20.1258742 L-9.9475983e-14,25.3166125 Z M43.6820592,21.3636656 C43.1629853,23.6396047 41.7654789,25.0770399 38.8906084,25.0770399 C35.6535458,25.0770399 33.825973,23.2104182 33.7427708,19.8492642 L50.7893778,19.8492642 L50.7893778,18.7283677 C50.7893778,12.4994818 46.8364309,7.86774605 38.9305372,7.86774605 C31.2242873,7.86774605 26.6724091,13.0984131 26.6724091,19.5668716 C26.6724091,26.2749026 30.5454984,31.0663533 39.0503235,31.0663533 C45.2792094,31.0663533 49.4717288,27.9918391 50.8692353,23.2003884 L43.6820592,21.3636656 Z M38.970466,13.777202 C42.3244815,13.777202 43.8018454,15.9280842 43.8018454,18.8029546 L33.7691673,18.8029546 C34.0356367,15.7271795 35.7808374,13.777202 38.970466,13.777202 Z M59.3740603,30.6670658 L59.3740603,19.5269428 C59.3740603,16.0132123 60.6917093,13.7372732 63.7262947,13.7372732 C66.960524,13.7372732 68.0386004,15.733711 68.0386004,18.9280115 L68.0386004,30.6670658 L75.2257765,30.6670658 L75.2257765,16.5322861 C75.2257765,11.2616903 72.6304074,7.86774605 67.5195266,7.86774605 C64.9241574,7.86774605 62.9676484,8.8260362 61.6499994,10.7825452 C60.3323505,12.6991255 59.5737041,15.2545659 59.3341316,18.4089377 L59.3341316,8.30696237 L52.226813,8.30696237 L52.226813,30.6670658 L59.3740603,30.6670658 Z M92.0757116,24.1986073 C91.1174214,24.7975386 90.2389888,25.0371112 89.2407699,25.0371112 C87.8432634,25.0371112 86.9648308,24.2784648 86.9648308,22.3618845 L86.9648308,14.6157058 L92.0757116,14.6157058 L92.0757116,8.30696237 L76.1441379,8.30696237 L76.1441379,14.6157058 L80.216871,14.6157058 L80.216871,23.7194622 C80.216871,28.990058 82.2931663,31.0663533 87.6835484,31.0663533 C89.0810549,31.0663533 90.7580626,30.7069945 92.0757116,30.2677782 L92.0757116,24.1986073 Z M86.9079337,1 C86.9390248,1.32810663 86.9580845,1.64516346 86.9651128,1.95117049 L86.96543,2.46253703 C86.8770449,6.35882059 84.667454,8.30696237 80.3366573,8.30696237 L80.3366573,1 L86.9079337,1 Z M93.8325768,8.30696237 L93.8325768,30.6670658 L101.059682,30.6670658 L101.059682,8.30696237 L93.8325768,8.30696237 Z" id="Shape"></path>
        </g>
    </g>
</svg>