<svg width="101" height="32" xmlns="http://www.w3.org/2000/svg"><g id="Symbols" stroke="none" stroke-width="1" fill="none" fill-rule="evenodd"><g id="Logo/Full/White" fill="#FFF" fill-rule="nonzero"><path d="M0 25.317c2.915 3.314 7.427 5.79 13.656 5.79 8.504 0 12.218-3.714 12.218-7.907 0-4.04-2.117-6.585-11.794-7.492l-.824-.072c-5.19-.439-6.308-1.779-6.308-3.855 0-2.236 1.597-4.193 5.15-4.193 3.874 0 6.549 1.597 8.346 4.632l5.989-5.55C23.079 3.156 18.487 1 12.138 1 4.552 1 .678 4.713.678 9.185l.007.345c.133 3.919 2.637 6.124 12.115 6.966l.416.036c5.231.44 6.23 1.438 6.23 3.674 0 2.515-1.718 4.312-5.231 4.312-3.474 0-5.99-1.397-7.906-4.392L0 25.316Zm43.682-3.953c-.519 2.276-1.917 3.713-4.791 3.713-3.237 0-5.065-1.867-5.148-5.228h17.046v-1.12c0-6.23-3.953-10.861-11.858-10.861-7.707 0-12.259 5.23-12.259 11.699 0 6.708 3.873 11.5 12.378 11.5 6.23 0 10.422-3.075 11.82-7.867l-7.188-1.836Zm-4.712-7.587c3.354 0 4.832 2.151 4.832 5.026H33.769c.267-3.076 2.012-5.026 5.201-5.026Zm20.404 16.89v-11.14c0-3.514 1.318-5.79 4.352-5.79 3.235 0 4.313 1.997 4.313 5.191v11.74h7.187V16.531c0-5.27-2.596-8.664-7.706-8.664-2.596 0-4.552.958-5.87 2.915-1.318 1.916-2.076 4.472-2.316 7.626V8.307h-7.107v22.36h7.147ZM92.076 24.2c-.959.599-1.837.838-2.835.838-1.398 0-2.276-.759-2.276-2.675v-7.746h5.11V8.307h-15.93v6.309h4.072v9.103c0 5.271 2.076 7.347 7.467 7.347 1.397 0 3.074-.359 4.392-.798v-6.07ZM86.908 1c.031.328.05.645.057.951v.512c-.088 3.896-2.298 5.844-6.628 5.844V1h6.57Zm6.925 7.307v22.36h7.227V8.307h-7.227Z" id="Shape"/></g></g></svg>