<svg width="120" height="120" xmlns="http://www.w3.org/2000/svg"><g id="Symbols" stroke="none" stroke-width="1" fill="none" fill-rule="evenodd"><g id="Icons/Social/Medium" fill="#000" fill-rule="nonzero"><path d="M67.226 60.516c0 17.244-14.12 31.613-31.613 31.613C18.12 92.129 4 77.76 4 60.516 4 42.37 18.12 28 35.613 28c17.492 0 31.613 14.369 31.613 32.516m34.322 0c0 16.24-7.095 29.807-15.354 29.807-9.163 0-16.259-13.567-16.259-29.807 0-17.143 7.096-30.71 16.259-30.71 8.259 0 15.354 13.496 15.354 30.71m14.452 0c0 14.967-2.401 27.097-5.42 27.097-3.018 0-5.419-12.13-5.419-27.097s2.401-27.097 5.42-27.097c3.018 0 5.419 12.13 5.419 27.097" id="Combined-Shape"/></g></g></svg>