<?xml version="1.0" encoding="UTF-8"?>
<svg width="120px" height="120px" viewBox="0 0 120 120" version="1.1" xmlns="http://www.w3.org/2000/svg" xmlns:xlink="http://www.w3.org/1999/xlink">
    <title>Icons/Social/Medium</title>
    <g id="Symbols" stroke="none" stroke-width="1" fill="none" fill-rule="evenodd">
        <g id="Icons/Social/Medium" fill="#000000" fill-rule="nonzero">
            <path d="M67.2258065,60.516129 C67.2258065,77.7601652 53.1053763,92.1290323 35.6129032,92.1290323 C18.1204301,92.1290323 4,77.7601652 4,60.516129 C4,42.3688671 18.1204301,28 35.6129032,28 C53.1053763,28 67.2258065,42.3688671 67.2258065,60.516129 M101.548387,60.516129 C101.548387,76.7561714 94.4530466,90.3225806 86.1935484,90.3225806 C77.0308244,90.3225806 69.9354839,76.7561714 69.9354839,60.516129 C69.9354839,43.3728608 77.0308244,29.8064516 86.1935484,29.8064516 C94.4530466,29.8064516 101.548387,43.3018325 101.548387,60.516129 M116,60.516129 C116,75.4831954 113.59902,87.6129032 110.580645,87.6129032 C107.56227,87.6129032 105.16129,75.4831954 105.16129,60.516129 C105.16129,45.5490627 107.56227,33.4193548 110.580645,33.4193548 C113.59902,33.4193548 116,45.5490627 116,60.516129" id="Combined-Shape"></path>
        </g>
    </g>
</svg>