<?xml version="1.0" encoding="UTF-8"?>
<svg width="662px" height="407px" viewBox="0 0 662 407" version="1.1" xmlns="http://www.w3.org/2000/svg" xmlns:xlink="http://www.w3.org/1999/xlink">
    <title>Ovals 1@3x</title>
    <g id="Design" stroke="none" stroke-width="1" fill="none" fill-rule="evenodd">
        <g id="Hp-1" transform="translate(-677.000000, -109.000000)" stroke="#000000">
            <g id="Ovals-1" transform="translate(678.065871, 110.384968)">
                <path d="M363.166235,303.931329 C531.703104,239.236086 647.674738,132.983436 622.196129,66.6093918 C596.717521,0.235347801 439.436901,-1.12558973 270.900032,63.5696528 C102.363164,128.264895 -13.6084704,234.517546 11.8701379,300.89159 C37.3487463,367.265634 194.629366,368.626571 363.166235,303.931329 Z" id="Oval" transform="translate(317.033134, 183.750491) rotate(-3.000000) translate(-317.033134, -183.750491) "></path>
                <path d="M389.420162,341.287455 C557.957031,276.592212 673.928665,170.339562 648.450057,103.965518 C622.971448,37.5914741 465.690828,36.2305366 297.153959,100.925779 C128.617091,165.621022 12.6454567,271.873672 38.1240651,338.247716 C63.6026734,404.62176 220.883293,405.982697 389.420162,341.287455 Z" id="Oval" transform="translate(343.287061, 221.106617) rotate(-3.000000) translate(-343.287061, -221.106617) "></path>
            </g>
        </g>
    </g>
</svg>