<svg width="662" height="407" xmlns="http://www.w3.org/2000/svg"><g id="Design" stroke="none" stroke-width="1" fill="none" fill-rule="evenodd"><g id="Hp-1" transform="translate(-677 -109)" stroke="#000"><g id="Ovals-1" transform="translate(678.066 110.385)"><path d="M363.166 303.931c168.537-64.695 284.509-170.948 259.03-237.322C596.718.235 439.436-1.126 270.9 63.57 102.363 128.266-13.608 234.519 11.87 300.893c25.479 66.374 182.76 67.735 351.296 3.04Z" id="Oval" transform="rotate(-3 317.033 183.75)"/><path d="M389.42 341.287C557.957 276.592 673.93 170.34 648.45 103.966c-25.479-66.375-182.76-67.735-351.296-3.04C128.617 165.62 12.645 271.874 38.124 338.248c25.479 66.374 182.76 67.735 351.296 3.04Z" id="Oval" transform="rotate(-3 343.287 221.107)"/></g></g></g></svg>