<svg width="120" height="120" xmlns="http://www.w3.org/2000/svg"><g id="Symbols" stroke="none" stroke-width="1" fill="none" fill-rule="evenodd"><g id="Icons/Social/Reddit" fill="#FF4500" fill-rule="nonzero"><path d="M60 12c26.51 0 48 21.49 48 48s-21.49 48-48 48-48-21.49-48-48 21.49-48 48-48Zm20.048 19.017a4.98 4.98 0 0 0-4.468 2.806L63.952 31.36c-.343-.057-.687 0-.916.172a1.08 1.08 0 0 0-.484.659L58.969 49.06c-7.446.229-14.148 2.463-19.017 5.957a7.036 7.036 0 0 0-4.868-1.948 6.98 6.98 0 0 0-6.989 6.988c0 2.864 1.719 5.27 4.125 6.358a12.703 12.703 0 0 0-.172 2.12c0 10.768 12.544 19.532 28.01 19.532 15.465 0 28.009-8.707 28.009-19.532 0-.688-.057-1.432-.172-2.12A7.055 7.055 0 0 0 92.019 60a6.98 6.98 0 0 0-6.988-6.988c-1.89 0-3.609.745-4.869 1.947-4.811-3.436-11.398-5.67-18.73-5.957l3.208-15.007 10.424 2.234a4.987 4.987 0 0 0 9.967-.23 4.987 4.987 0 0 0-4.983-4.982ZM50.033 76.382c2.177 2.176 6.76 2.921 10.024 2.921 3.265 0 7.905-.745 10.024-2.921a1.28 1.28 0 0 1 1.833 0 1.394 1.394 0 0 1 0 1.833c-3.36 3.36-9.678 3.654-11.724 3.665l-.581-.004c-2.356-.047-8.254-.507-11.409-3.661a1.28 1.28 0 0 1 0-1.833 1.28 1.28 0 0 1 1.833 0Zm20.965-16.325a4.987 4.987 0 0 1 4.983 4.984c0 2.692-2.234 4.983-4.983 4.983a4.987 4.987 0 0 1-4.984-4.983 4.987 4.987 0 0 1 4.984-4.984ZM49.002 60a4.987 4.987 0 0 1 4.984 4.983 4.987 4.987 0 0 1-4.984 4.984c-2.749.057-4.983-2.234-4.983-4.984A4.987 4.987 0 0 1 49.002 60Z" id="Shape"/></g></g></svg>