<?xml version="1.0" encoding="UTF-8"?>
<svg width="120px" height="120px" viewBox="0 0 120 120" version="1.1" xmlns="http://www.w3.org/2000/svg" xmlns:xlink="http://www.w3.org/1999/xlink">
    <title>Icons/Social/Twitter</title>
    <g id="Symbols" stroke="none" stroke-width="1" fill="none" fill-rule="evenodd">
        <g id="Icons/Social/Twitter" fill="#50ABF1" fill-rule="nonzero">
            <path d="M12.0054446,90.2962972 C20.6967413,95.809483 31.0065162,99 42.0581891,99 C73.1064353,99 98.2750895,73.8240927 98.2750895,42.7733007 C98.2750895,41.9980268 98.2587557,41.2284851 98.2289537,40.4612363 C99.3519735,39.5773381 106.29756,34.0094103 108,30.4299667 C108,30.4299667 102.359684,32.7744177 96.8394351,33.3267107 C96.8285459,33.3267107 96.8150777,33.3292902 96.8041885,33.3292902 C96.8041885,33.3292902 96.8150777,33.3238447 96.8339905,33.3103741 C97.3426305,32.9704574 104.453848,28.1287934 105.416682,22.3599536 C105.416682,22.3599536 101.427225,24.4897354 95.8413545,26.3529721 C94.9166326,26.6602155 93.9486405,26.9623001 92.9505598,27.2423158 C89.3499616,23.3989065 84.2320401,21 78.5510327,21 C67.6541009,21 58.8241103,29.8289503 58.8241103,40.7194698 C58.8241103,42.2562604 59.0009164,43.752066 59.3353293,45.1882572 C57.8125614,45.1257767 34.6234482,43.8254375 18.8478707,24.7178751 C18.8478707,24.7178751 9.41954742,37.5914334 24.4664086,50.82927 C24.4664086,50.82927 19.8923737,50.6469875 15.9461868,48.2887793 C15.9461868,48.2887793 14.4967777,63.8848241 31.5369346,67.8723971 C31.5369346,67.8723971 28.1839223,69.1426424 22.8347487,68.2369621 C22.8347487,68.2369621 25.8261251,80.8385296 40.9655444,82.0162007 C40.9655444,82.0162007 28.9940211,92.8327754 12,90.2948642 L12.0054446,90.2962972 Z" id="Path"></path>
        </g>
    </g>
</svg>