<svg width="120" height="120" xmlns="http://www.w3.org/2000/svg"><g id="Symbols" stroke="none" stroke-width="1" fill="none" fill-rule="evenodd"><g id="Icons/Social/Twitter" fill="#50ABF1" fill-rule="nonzero"><path d="M12.005 90.296C20.697 95.81 31.007 99 42.058 99c31.048 0 56.217-25.176 56.217-56.227 0-.775-.016-1.545-.046-2.312 1.123-.884 8.069-6.452 9.771-10.031 0 0-5.64 2.344-11.16 2.897l-.036.002s.011-.005.03-.019c.509-.34 7.62-5.181 8.583-10.95 0 0-3.99 2.13-9.576 3.993a64.06 64.06 0 0 1-2.89.89A19.669 19.669 0 0 0 78.55 21c-10.897 0-19.727 8.829-19.727 19.72 0 1.536.177 3.032.511 4.468-1.522-.062-24.712-1.363-40.487-20.47 0 0-9.428 12.873 5.618 26.111 0 0-4.574-.182-8.52-2.54 0 0-1.45 15.596 15.59 19.583 0 0-3.352 1.27-8.701.365 0 0 2.991 12.602 18.13 13.78 0 0-11.971 10.816-28.965 8.278l.005.001Z" id="Path"/></g></g></svg>