<?xml version="1.0" encoding="UTF-8"?>
<svg width="24px" height="24px" viewBox="0 0 24 24" version="1.1" xmlns="http://www.w3.org/2000/svg" xmlns:xlink="http://www.w3.org/1999/xlink">
    <title>Data Display/Icons/wallet</title>
    <g id="Symbols" stroke="none" stroke-width="1" fill="none" fill-rule="evenodd">
        <g id="Data-Display/Icons/wallet" fill="#0D0B21">
            <path d="M20.9991405,11.1836053 L20.9991405,7.99978513 C20.9991405,7.44752411 20.5514445,6.9998281 19.9991835,6.9998281 L5.99987108,6.9998281 C5.44761006,6.9998281 4.99991405,6.55213209 4.99991405,5.99987108 C4.99991405,5.44761006 5.44761006,4.99991405 5.99987108,4.99991405 L19.9991835,4.99991405 C20.5514445,4.99991405 20.9991405,4.55221804 20.9991405,3.99995703 C20.9991405,3.44769601 20.5514445,3 19.9991835,3 L5.99987108,3 C4.34308803,3 3,4.34308803 3,5.99987108 L3,18.9992694 C3,20.6560525 4.34308803,20.9991405 5.99987108,20.9991405 L19.9991835,20.9991405 C20.5514445,20.9991405 20.9991405,20.5514445 20.9991405,19.9991835 L20.9991405,16.8153633 C22.1972186,16.3979699 23,15.2681877 23,13.9994843 C23,12.7307809 22.1972186,11.6009988 20.9991405,11.1836053 Z M18.9992265,18.9992265 L5.99987108,18.9992265 C5.44761006,18.9992265 4.99991405,19.5515305 4.99991405,18.9992694 L4.99991405,8.81575006 C5.32015727,8.93418272 5.65844608,8.99642787 5.99987108,8.99974216 L18.9992265,8.99974216 L18.9992265,10.9996132 L15.9993554,10.9996132 C14.3425724,10.9996133 12.9994844,12.3427013 12.9994844,13.9994843 C12.9994844,15.6562673 14.3425724,16.9993554 15.9993554,16.9993554 L18.9992265,16.9993554 L18.9992265,18.9992265 Z M19.9991835,14.9994413 L15.9993554,14.9994413 C15.4470944,14.9994413 14.9993984,14.5517453 14.9993984,13.9994843 C14.9993984,13.4472233 15.4470944,12.9995273 15.9993554,12.9995273 L19.9991835,12.9995273 C20.5514445,12.9995273 20.9991405,13.4472233 20.9991405,13.9994843 C20.9991405,14.5517453 20.5514445,14.9994413 19.9991835,14.9994413 Z" id="Shape"></path>
        </g>
    </g>
</svg>