<svg width="24" height="24" xmlns="http://www.w3.org/2000/svg"><g id="Symbols" stroke="none" stroke-width="1" fill="none" fill-rule="evenodd"><g id="Data-Display/Icons/wallet" fill="#0D0B21"><path d="M21 11.184V8a1 1 0 0 0-1-1H6a1 1 0 1 1 0-2h14a1 1 0 0 0 0-2H6a3 3 0 0 0-3 3v13c0 1.656 1.343 2 3 2h14a1 1 0 0 0 1-1v-3.185a2.982 2.982 0 0 0 0-5.631Zm-2 7.815H6c-.552 0-1 .553-1 0V8.816c.32.118.658.18 1 .184h13v2h-3a3 3 0 0 0 0 6h3v2Zm1-4h-4a1 1 0 0 1 0-2h4a1 1 0 0 1 0 2Z" id="Shape"/></g></g></svg>