<?xml version="1.0" encoding="UTF-8"?>
<svg width="120px" height="120px" viewBox="0 0 120 120" version="1.1" xmlns="http://www.w3.org/2000/svg" xmlns:xlink="http://www.w3.org/1999/xlink">
    <title>Icons/Social/Reddit</title>
    <g id="Symbols" stroke="none" stroke-width="1" fill="none" fill-rule="evenodd">
        <g id="Icons/Social/Reddit" fill="#FF4500" fill-rule="nonzero">
            <path d="M60,12 C86.509668,12 108,33.490332 108,60 C108,86.509668 86.509668,108 60,108 C33.490332,108 12,86.509668 12,60 C12,33.490332 33.490332,12 60,12 Z M80.047732,31.0167075 C78.100238,31.0167075 76.381861,32.1622922 75.5799517,33.82339 L63.9522672,31.3603829 C63.6085918,31.3031037 63.2649164,31.3603829 63.0357994,31.5322206 C62.790317,31.67951 62.629,31.9109649 62.5518483,32.1905143 L58.9689738,49.0596663 C51.5226733,49.2887832 44.8210029,51.5226733 39.952268,55.0167075 C38.6921249,53.8138427 36.9737478,53.0692127 35.0835331,53.0692127 C31.1885452,53.0692127 28.0954665,56.2195705 28.0954665,60.0572792 C28.0954665,62.9212409 29.8138436,65.3269688 32.2195714,66.4152742 C32.1050129,67.102625 32.0477337,67.7899759 32.0477337,68.5346059 C32.0477337,79.3031019 44.591886,88.0668248 60.0572792,88.0668248 C75.5226725,88.0668248 88.0668248,79.3603812 88.0668248,68.5346059 C88.0668248,67.8472551 88.0095455,67.102625 87.8949871,66.4152742 C90.3007149,65.3269688 92.0190919,62.8639617 92.0190919,60 C92.0190919,56.1050121 88.8687341,53.0119334 85.0310254,53.0119334 C83.1408106,53.0119334 81.4224336,53.7565635 80.1622904,54.9594274 C75.3508348,51.5226733 68.7637228,49.2887832 61.4319809,49.002387 L64.639618,33.9952277 L75.0644386,36.2291178 C75.1789971,38.8639626 77.355608,40.9832942 80.047732,40.9832942 C82.7971352,40.9832942 85.0310254,38.7494041 85.0310254,36.0000009 C85.0310254,33.2505976 82.7971352,31.0167075 80.047732,31.0167075 Z M50.0334132,76.381861 C52.2100241,78.5584719 56.7923629,79.3031019 60.0572792,79.3031019 C63.3221956,79.3031019 67.9618136,78.5584719 70.0811452,76.381861 C70.5966583,75.8663479 71.3985676,75.8663479 71.9140807,76.381861 C72.3723146,76.8973741 72.3723146,77.6992834 71.9140807,78.2147965 C68.553699,81.5751782 62.2361813,81.8689005 60.1900822,81.8802954 L59.6089738,81.8760172 C57.2531425,81.8287343 51.3546542,81.368973 48.2004777,78.2147965 C47.6849646,77.6992834 47.6849646,76.8973741 48.2004777,76.381861 C48.7159909,75.8663479 49.5179001,75.8663479 50.0334132,76.381861 Z M70.997613,60.0572792 C73.7470162,60.0572792 75.9809063,62.2911694 75.9809063,65.0405726 C75.9809063,67.7326966 73.7470162,70.023866 70.997613,70.023866 C68.2482097,70.023866 66.0143196,67.7899759 66.0143196,65.0405726 C66.0143196,62.2911694 68.2482097,60.0572792 70.997613,60.0572792 Z M49.002387,60 C51.7517903,60 53.9856804,62.2338901 53.9856804,64.9832934 C53.9856804,67.7326966 51.7517903,69.9665868 49.002387,69.9665868 C46.2529838,70.023866 44.0190937,67.7326966 44.0190937,64.9832934 C44.0190937,62.2338901 46.2529838,60 49.002387,60 Z" id="Shape"></path>
        </g>
    </g>
</svg>