<?xml version="1.0" encoding="UTF-8"?>
<svg width="24px" height="24px" viewBox="0 0 24 24" version="1.1" xmlns="http://www.w3.org/2000/svg" xmlns:xlink="http://www.w3.org/1999/xlink">
    <title>Icons/Basic/arrow-small-right</title>
    <g id="Symbols" stroke="none" stroke-width="1" fill="none" fill-rule="evenodd">
        <g id="Icons/Basic/arrow-small-right" fill="#0D0B21">
            <path d="M6,11.0043885 L16,11.0043885 L12.71,7.71202284 C12.5206873,7.52412122 12.4142017,7.26834157 12.4142017,7.00151231 C12.4142017,6.73468305 12.5206873,6.4789034 12.71,6.29100179 C13.1000375,5.9029994 13.7299625,5.9029994 14.12,6.29100179 L18.41,10.5940937 C18.7438558,10.9261992 18.9485988,11.3640381 18.9915438,11.8294418 L19,12.0051075 C18.9951334,12.5315906 18.7831557,13.0349503 18.41,13.4061142 L14.12,17.7092061 C13.8663414,17.9612595 13.497579,18.0587438 13.152622,17.9649378 C12.8076649,17.8711317 12.5389204,17.6002867 12.4476219,17.2544273 C12.3563235,16.9085679 12.4563414,16.5402384 12.71,16.2881851 L16,13.0058266 L6,13.0058266 C5.44771525,13.0058266 5,12.5577894 5,12.0051075 C5,11.4524257 5.44771525,11.0043885 6,11.0043885 Z" id="Shape"></path>
        </g>
    </g>
</svg>