<?xml version="1.0" encoding="UTF-8"?>
<svg width="24px" height="24px" viewBox="0 0 24 24" version="1.1" xmlns="http://www.w3.org/2000/svg" xmlns:xlink="http://www.w3.org/1999/xlink">
    <title>Icons/Basic/angle-down</title>
    <g id="Symbols" stroke="none" stroke-width="1" fill="none" fill-rule="evenodd">
        <g id="Icons/Basic/angle-down" fill="#0B1621">
            <path d="M16.7072195,14.7104831 C16.5196686,14.8958513 16.2652228,15 15.9999007,15 C15.7345786,15 15.4801327,14.8958513 15.2925818,14.7104831 L12.235311,11.6913883 C12.105147,11.5628604 11.8941512,11.5628604 11.7639873,11.6913883 L8.70738313,14.7104831 C8.31692579,15.0963307 7.68372015,15.0964781 7.29307873,14.7108123 C6.9024373,14.3251465 6.90228806,13.6997113 7.29274539,13.3138637 L11.4103408,9.24146398 C11.7105472,8.94455273 12.1832245,8.92142242 12.5103003,9.17227891 L12.5896241,9.24146398 L12.5896241,9.24146398 L16.7072195,13.3138637 C17.0975935,13.6995636 17.0975935,14.3247832 16.7072195,14.7104831 Z" id="Shape" transform="translate(12.000000, 12.000000) scale(1, -1) translate(-12.000000, -12.000000) "></path>
        </g>
    </g>
</svg>
